<?xml version="1.0" encoding="utf-8"?>
<!-- Generator: Adobe Illustrator 23.0.4, SVG Export Plug-In . SVG Version: 6.00 Build 0)  -->
<svg version="1.1" id="Laag_2" xmlns="http://www.w3.org/2000/svg" xmlns:xlink="http://www.w3.org/1999/xlink" x="0px" y="0px"
	 viewBox="0 0 553 280" style="enable-background:new 0 0 553 280;" xml:space="preserve">
<style type="text/css">
	.st0{fill:#003A51;}
	.st1{font-family:'BebasNeueBold';}
	.st2{font-size:120.8926px;}
	.st3{letter-spacing:4;}
	.st4{fill-rule:evenodd;clip-rule:evenodd;fill:#51B57F;}
</style>
<g id="Symbols">
	<g transform="translate(-80.000000, -33.000000)">
		<text transform="matrix(1 0 0 1 307.4619 216.8106)" class="st0 st1 st2 st3">DeltaQ</text>
	</g>
</g>
<g id="Symbols_1_">
	<g transform="translate(-40.000000, -22.000000)">
		<g id="Group" transform="translate(40.000000, 22.000000)">
			<path id="Combined-Shape" class="st0" d="M141.76,220.07l-15.88-25.83c0.52-0.58,1.02-1.18,1.49-1.79
				c3.88-4.07,6.54-9.39,7.99-15.96c1.35-6.57,2.03-19.16,2.03-37.76s-0.68-31.27-2.03-38.02c-1.44-6.4-4.11-11.63-7.99-15.7
				c-2.98-3.89-6.95-7.14-11.91-9.73c-5.23-2.51-11.42-3.85-18.55-4.02c-7.04,0.17-13.09,1.51-18.14,4.02
				c-5.14,2.59-9.3,5.84-12.46,9.73c-3.88,4.07-6.45,9.3-7.72,15.7c-1.44,6.75-2.17,19.42-2.17,38.02s0.72,31.18,2.17,37.76
				c1.26,6.57,3.84,11.89,7.72,15.96c0.91,1.12,1.9,2.18,2.98,3.18l-15.62,25.4c-8.33-5.96-14.54-12.68-18.64-20.15
				c-1.44-2.85-2.75-5.58-3.93-8.17c-1.08-2.68-1.99-6.05-2.71-10.12c-1.35-7.61-2.03-22.23-2.03-43.86
				c0-21.97,0.68-36.68,2.03-44.11c1.44-7.44,3.66-13.45,6.63-18.04c4.78-8.74,12.46-16.52,23.02-23.35
				C68.43,46.3,81.38,42.75,96.9,42.58c15.7,0.17,28.79,3.72,39.26,10.64c10.38,6.83,17.87,14.62,22.47,23.35
				c3.34,4.58,5.64,10.6,6.9,18.04c1.17,7.44,1.76,22.14,1.76,44.11c0,21.62-0.59,36.24-1.76,43.86c-1.26,7.61-3.57,13.71-6.9,18.29
				C154.91,207.95,149.28,214.35,141.76,220.07z"/>
			<path id="Triangle" class="st4" d="M99.72,180.67l36.17,58.06c0.99,1.59,0.5,3.68-1.09,4.67c-0.54,0.34-1.16,0.51-1.79,0.51
				H60.67c-1.87,0-3.39-1.52-3.39-3.39c0-0.63,0.18-1.26,0.51-1.79l36.17-58.06c0.99-1.59,3.08-2.08,4.67-1.09
				C99.07,179.86,99.44,180.23,99.72,180.67z"/>
		</g>
	</g>
</g>
</svg>
