<?xml version="1.0" standalone="no"?>
<!DOCTYPE svg PUBLIC "-//W3C//DTD SVG 20010904//EN"
 "http://www.w3.org/TR/2001/REC-SVG-20010904/DTD/svg10.dtd">
<svg version="1.0" xmlns="http://www.w3.org/2000/svg"
 width="1280.000000pt" height="1280.000000pt" viewBox="0 0 1280.000000 1280.000000"
 preserveAspectRatio="xMidYMid meet">
<metadata>
Created by potrace 1.11, written by Peter Selinger 2001-2013
</metadata>
<g transform="translate(0.000000,1280.000000) scale(0.100000,-0.100000)"
fill="#000000" stroke="none">
<path d="M6148 12795 c-2 -2 -50 -6 -108 -10 -58 -4 -118 -9 -135 -11 -16 -2
-57 -5 -90 -8 -33 -2 -69 -7 -80 -9 -11 -2 -47 -8 -80 -11 -71 -9 -114 -15
-135 -21 -8 -2 -35 -7 -60 -10 -25 -4 -63 -10 -85 -15 -22 -5 -56 -12 -75 -15
-19 -3 -80 -18 -135 -32 -55 -14 -104 -26 -110 -27 -55 -13 -337 -105 -395
-129 -14 -6 -27 -11 -30 -12 -3 -1 -18 -7 -33 -13 -16 -7 -30 -12 -32 -12 -12
0 -346 -160 -355 -170 -3 -3 -24 -14 -47 -25 -24 -11 -43 -23 -43 -27 0 -5 -4
-8 -10 -8 -5 0 -36 -17 -67 -37 -72 -47 -94 -60 -113 -69 -8 -4 -17 -10 -20
-14 -3 -3 -35 -26 -72 -50 -38 -24 -68 -48 -68 -52 0 -4 -6 -8 -12 -8 -11 0
-87 -52 -143 -97 -5 -5 -48 -38 -95 -73 -47 -36 -87 -67 -90 -70 -3 -3 -39
-35 -80 -70 -112 -95 -133 -115 -259 -241 -101 -100 -150 -153 -236 -253 -69
-80 -167 -210 -220 -291 -22 -33 -42 -62 -46 -65 -3 -3 -8 -9 -10 -15 -2 -5
-33 -59 -69 -118 -95 -159 -93 -155 -142 -247 -57 -105 -177 -391 -189 -450
-1 -3 -3 -9 -5 -15 -28 -97 -67 -234 -70 -249 -3 -18 -10 -48 -20 -88 -1 -5
-2 -9 -4 -10 -1 -2 -3 -12 -5 -23 -1 -11 -12 -71 -25 -133 -12 -63 -23 -130
-26 -150 -2 -20 -5 -53 -8 -72 -3 -19 -8 -64 -11 -100 -2 -36 -7 -81 -9 -100
-3 -19 -7 -66 -10 -105 -4 -38 -8 -95 -11 -125 -15 -185 -29 -497 -42 -960
-15 -521 -6 -2590 10 -2607 3 -3 2 -16 -3 -29 -5 -13 -6 -24 -2 -24 4 0 8 -35
8 -77 1 -69 5 -163 18 -423 6 -112 21 -304 32 -400 3 -25 7 -67 9 -95 3 -27 7
-66 10 -85 2 -19 7 -62 10 -95 3 -33 8 -67 12 -75 3 -8 7 -26 8 -40 1 -14 7
-50 14 -80 6 -30 13 -68 15 -85 7 -53 75 -305 107 -399 41 -117 102 -253 242
-531 39 -77 75 -150 81 -162 6 -13 14 -23 19 -23 4 0 7 -5 7 -11 0 -13 145
-234 177 -269 13 -14 23 -28 23 -32 0 -4 11 -18 25 -32 14 -14 25 -29 25 -33
0 -4 12 -22 28 -38 15 -17 58 -66 97 -110 81 -92 280 -292 356 -356 28 -24 61
-53 74 -64 33 -29 131 -108 190 -153 104 -79 135 -100 135 -91 0 6 11 25 25
43 14 18 25 37 25 43 0 5 8 18 18 29 9 10 28 40 42 67 14 26 28 47 32 47 5 0
8 4 8 9 0 5 16 33 35 62 19 30 35 59 35 66 0 7 5 13 10 13 6 0 10 6 10 14 0 8
3 16 8 18 9 4 72 107 72 118 0 5 3 10 8 12 6 2 93 139 137 216 6 9 42 68 80
130 39 62 75 121 80 130 43 74 221 360 231 373 8 9 11 19 8 22 -4 4 1 9 10 13
9 3 16 11 16 16 0 5 22 46 49 90 l49 79 -57 57 c-32 31 -84 89 -117 127 -32
39 -64 75 -70 80 -20 19 -94 113 -94 119 0 4 -8 16 -18 27 -11 10 -25 32 -33
47 -8 15 -24 43 -37 62 -24 36 -105 197 -108 216 -1 5 -11 30 -23 54 -11 24
-21 51 -21 60 0 9 -4 20 -8 26 -8 8 -43 122 -57 179 -14 63 -55 250 -58 273
-3 15 -7 43 -11 62 -8 49 -17 119 -21 160 -2 19 -6 55 -9 80 -4 25 -8 74 -11
110 -3 36 -7 83 -9 105 -14 120 -35 509 -40 757 -1 54 -5 101 -9 104 -3 3 -2
17 3 30 6 14 6 26 0 29 -7 4 -7 13 0 24 5 10 6 22 2 26 -10 10 -10 1555 0
1555 5 0 6 5 2 12 -10 16 -11 58 -2 64 5 3 4 14 -2 24 -6 10 -6 21 -2 24 7 4
8 42 2 71 -1 6 -1 12 0 15 1 3 3 41 5 85 10 250 15 371 21 460 4 55 7 133 8
172 0 40 4 73 7 73 3 0 7 25 8 57 1 31 3 70 6 87 2 17 7 58 11 91 20 185 30
261 44 330 5 28 12 64 15 80 3 17 7 40 10 53 3 12 7 31 10 43 2 11 6 28 9 37
3 9 7 28 10 42 2 14 14 54 26 90 12 36 23 72 25 80 10 45 131 309 146 320 4 3
12 18 18 32 21 56 169 249 284 370 9 10 17 20 17 22 0 13 177 179 265 249 103
83 277 201 320 217 14 5 25 14 25 19 0 5 11 12 24 15 13 3 52 22 86 41 34 19
66 35 72 35 5 0 22 6 36 14 62 32 217 87 315 112 4 1 8 2 10 4 1 1 9 3 18 5
10 1 48 10 87 19 39 9 87 18 107 22 21 3 47 7 58 10 108 20 313 37 457 37 86
1 275 -9 275 -13 0 -1 23 -3 50 -5 53 -4 130 -13 130 -15 0 -1 15 -3 33 -5 19
-2 41 -7 50 -10 10 -4 33 -9 52 -11 19 -3 44 -7 55 -11 11 -3 29 -7 40 -9 32
-3 197 -52 277 -80 114 -41 241 -99 313 -144 37 -22 70 -40 74 -40 4 0 16 -8
27 -17 11 -10 35 -27 54 -37 19 -11 41 -26 49 -34 8 -7 26 -21 40 -30 14 -9
51 -37 81 -62 30 -25 63 -52 73 -60 49 -39 265 -270 253 -270 -2 0 15 -19 38
-43 22 -24 55 -61 71 -82 17 -21 40 -50 53 -66 12 -15 22 -30 22 -33 0 -4 9
-16 20 -28 11 -12 20 -28 20 -35 0 -7 4 -13 9 -13 5 0 13 -10 17 -22 4 -13 10
-25 14 -28 5 -3 31 -50 58 -105 44 -89 64 -132 92 -200 12 -29 67 -195 76
-230 10 -42 11 -45 14 -47 1 -2 3 -12 5 -23 2 -11 9 -42 14 -68 6 -26 13 -69
17 -95 3 -26 8 -56 11 -67 6 -25 10 -56 17 -125 3 -30 8 -75 11 -100 6 -60 14
-151 20 -225 10 -131 17 -200 21 -207 2 -4 0 -9 -6 -13 -6 -4 -7 -11 -3 -18 7
-12 14 -120 16 -279 1 -54 6 -98 10 -98 4 0 3 -8 -2 -19 -6 -10 -8 -21 -4 -24
20 -20 23 -2287 3 -2287 -3 0 -6 -46 -6 -103 -2 -107 -11 -309 -19 -412 -2
-33 -7 -96 -10 -140 -4 -44 -8 -93 -10 -110 -3 -16 -7 -61 -11 -100 -8 -94
-12 -130 -14 -130 -1 0 -4 -16 -6 -35 -7 -65 -20 -152 -29 -190 -1 -3 -5 -25
-9 -50 -5 -25 -11 -49 -14 -55 -4 -5 -8 -19 -9 -30 -2 -11 -15 -58 -30 -105
-15 -47 -28 -89 -29 -95 -8 -39 -137 -328 -154 -345 -3 -3 -14 -21 -24 -40
-34 -62 -143 -213 -203 -281 -32 -37 -66 -77 -77 -90 -10 -13 -27 -33 -38 -45
-17 -19 -17 -23 -3 -57 8 -21 19 -37 24 -37 5 0 11 -8 15 -18 3 -9 10 -24 16
-32 14 -21 83 -134 122 -200 17 -30 35 -56 40 -58 4 -2 8 -8 8 -12 0 -5 27
-52 60 -105 33 -53 60 -100 60 -106 0 -5 3 -9 8 -9 4 0 16 -17 27 -37 20 -39
58 -100 73 -118 4 -5 11 -17 14 -25 4 -8 41 -69 82 -135 41 -66 98 -158 126
-205 28 -47 71 -116 96 -155 25 -38 47 -78 51 -87 3 -10 9 -18 14 -18 5 0 9
-4 9 -10 0 -7 132 -224 146 -239 3 -4 172 129 233 183 130 117 331 312 331
321 0 2 17 21 38 43 20 21 53 58 72 82 19 24 40 48 46 54 51 53 250 344 305
446 13 25 27 47 32 48 4 2 7 8 7 14 0 5 26 49 57 96 72 110 150 260 197 382
21 52 41 104 46 115 10 22 60 187 59 195 0 3 4 18 10 33 11 28 23 81 24 105 0
6 3 12 7 12 3 0 6 8 6 18 1 18 8 62 18 102 9 40 17 82 22 125 2 21 7 51 10 65
5 26 9 58 18 145 14 136 17 165 20 216 3 30 7 88 11 129 10 123 20 329 30 590
27 737 27 2611 0 3320 -11 277 -13 311 -18 316 -3 4 -2 17 3 30 5 13 6 24 2
24 -4 0 -8 19 -8 43 -1 57 -13 264 -19 307 -2 19 -7 64 -10 100 -3 36 -8 81
-10 100 -3 19 -7 60 -11 90 -3 30 -7 69 -9 85 -2 17 -8 50 -14 75 -5 25 -13
61 -16 80 -3 19 -13 64 -21 100 -9 36 -17 73 -19 82 -13 59 -69 240 -105 332
-45 119 -129 299 -142 304 -4 2 -8 9 -8 16 0 12 -75 134 -99 163 -6 6 -35 55
-66 110 -84 146 -98 170 -117 193 -10 11 -18 23 -18 26 0 5 -37 60 -55 80 -5
6 -17 22 -25 34 -31 47 -116 152 -152 192 -16 16 -28 31 -28 33 0 15 -281 299
-369 374 -30 25 -69 60 -86 76 -18 17 -44 39 -59 50 -16 11 -33 25 -40 30 -6
6 -34 28 -61 50 -28 22 -51 43 -53 47 -2 5 -10 8 -17 8 -7 0 -15 3 -17 8 -1 4
-28 25 -58 47 -30 22 -57 42 -60 46 -3 3 -9 8 -15 10 -5 2 -72 46 -148 97 -76
50 -140 92 -143 92 -2 0 -23 12 -47 27 -74 47 -348 179 -472 228 -66 26 -129
51 -140 56 -22 10 -144 47 -160 50 -5 0 -18 5 -28 11 -10 5 -28 11 -39 13 -21
4 -80 22 -108 32 -8 3 -24 7 -35 8 -11 2 -47 10 -81 19 -66 16 -108 26 -139
31 -11 2 -22 4 -25 6 -6 3 -11 4 -75 14 -27 4 -59 9 -70 12 -34 7 -59 11 -100
18 -36 6 -63 9 -170 20 -16 2 -43 6 -60 9 -16 2 -50 6 -75 7 -25 1 -53 6 -62
11 -12 6 -18 5 -18 -2 0 -6 -4 -9 -8 -6 -19 11 -154 18 -419 21 -155 1 -284 1
-285 0z"/>
<path d="M6380 4122 c-41 -5 -90 -23 -90 -32 0 -5 -9 -12 -20 -15 -12 -4 -33
-25 -48 -48 -15 -23 -30 -43 -34 -45 -5 -2 -8 -8 -8 -12 0 -5 -33 -61 -72
-125 -40 -63 -80 -126 -88 -140 -64 -105 -205 -331 -210 -335 -6 -5 -58 -91
-73 -120 -4 -8 -25 -42 -46 -75 -22 -33 -72 -114 -112 -180 -41 -66 -77 -124
-82 -130 -4 -5 -35 -55 -69 -110 -33 -55 -73 -119 -89 -142 -16 -23 -29 -46
-29 -52 0 -6 -4 -11 -10 -11 -5 0 -12 -11 -16 -25 -3 -14 -10 -25 -15 -25 -5
0 -9 -4 -9 -9 0 -5 -18 -37 -40 -70 -22 -33 -40 -63 -40 -66 0 -3 -5 -11 -10
-18 -6 -7 -45 -68 -88 -137 -42 -69 -79 -127 -83 -130 -3 -3 -8 -10 -10 -15
-9 -23 -164 -270 -171 -273 -4 -2 -8 -8 -8 -13 0 -6 -19 -40 -43 -77 -24 -37
-66 -103 -92 -147 -27 -44 -55 -86 -62 -93 -7 -7 -13 -20 -13 -28 0 -8 -4 -14
-10 -14 -5 0 -10 -5 -10 -10 0 -9 -41 -78 -63 -105 -4 -5 -25 -38 -45 -73 -70
-119 -176 -287 -189 -300 -7 -7 -13 -19 -13 -26 0 -8 -6 -19 -14 -25 -8 -7
-21 -26 -30 -44 -9 -18 -48 -81 -86 -140 -39 -60 -70 -110 -70 -112 0 -5 -148
-238 -160 -253 -6 -6 -9 -12 -7 -12 3 0 -1 -16 -8 -37 -28 -82 5 -173 87 -239
44 -35 55 -35 2443 -32 l2340 3 40 25 c88 54 117 121 104 238 -2 17 -6 32 -10
32 -4 0 -10 11 -13 25 -4 14 -11 25 -16 25 -6 0 -10 5 -10 10 0 6 -25 49 -55
95 -30 47 -55 90 -55 95 0 6 -4 10 -10 10 -5 0 -10 4 -10 9 0 5 -17 36 -38 68
-21 32 -44 70 -51 85 -8 16 -18 28 -23 28 -4 0 -8 5 -8 11 0 6 -15 34 -33 62
-63 98 -122 191 -132 208 -52 89 -80 135 -85 139 -11 10 -90 141 -90 151 0 5
-4 9 -9 9 -5 0 -12 8 -15 17 -7 21 -14 32 -79 131 -26 40 -47 75 -47 78 0 3
-11 20 -25 38 -14 18 -25 38 -25 44 0 7 -4 12 -10 12 -5 0 -10 7 -10 15 0 8
-4 15 -8 15 -4 0 -13 12 -20 28 -6 15 -24 46 -39 69 -16 24 -52 82 -82 130
-30 49 -68 111 -86 138 -18 28 -70 111 -116 185 -46 74 -88 138 -92 141 -5 3
-7 8 -6 10 2 2 -13 29 -32 59 -46 70 -210 334 -226 363 -7 12 -17 29 -23 37
-23 34 -200 316 -207 330 -4 8 -29 49 -56 90 -27 41 -53 85 -58 98 -5 12 -13
22 -19 22 -5 0 -10 6 -10 14 0 8 -7 22 -16 30 -8 9 -13 16 -9 16 3 0 1 6 -5
13 -6 6 -56 84 -110 172 -54 88 -104 165 -110 172 -5 7 -10 14 -10 16 0 7 -67
117 -83 136 -7 9 -19 29 -27 45 -15 30 -85 106 -98 106 -4 0 -27 6 -52 13 -25
7 -56 11 -70 9z"/>
</g>
</svg>
